<svg xmlns="http://www.w3.org/2000/svg" width="16" height="16" fill="currentColor" class="bi bi-plankton" viewBox="0 0 16 16">
    <path d="m 11.472656,0.40625 c -0.1819,0.0648293 -0.136969,0.9088908 -0.193359,0.9335938 -0.192142,0.084177 -0.377537,0.199082 -0.556641,0.3417968 C 10.667793,1.7253572 10.072713,1.1342877 10.001953,0.875 9.8409466,1.0833141 10.453164,1.9193097 10.400391,1.9726562 10.239076,2.1357223 10.081761,2.3206463 9.9277344,2.5234375 9.8828217,2.5825697 9.2004994,2.3061224 8.9003906,1.9492188 8.8065642,2.3362543 9.7018544,2.8363369 9.65625,2.9042969 9.5539998,3.0566699 9.4525549,3.2186983 9.3515625,3.3886719 9.3116723,3.4558083 8.5705367,3.2176492 8.3710938,2.9648438 8.3186985,3.3192294 9.1593671,3.7228076 9.1230469,3.7890625 9.0316697,3.9557512 8.9405463,4.1318305 8.8496094,4.3125 8.5532996,4.1384107 8.2200215,4.0332031 7.8515625,4.0332031 c -1.1e-6,-1.9e-6 1.1e-6,0.00195 0,0.00195 C 7.4870072,4.0369941 7.1569503,4.1419153 6.8632812,4.3144531 6.7723443,4.1337836 6.681221,3.9596575 6.5898438,3.7929688 6.5535235,3.726714 7.3961452,3.3211825 7.34375,2.9667969 7.1443071,3.2196023 6.4031714,3.4577614 6.3632812,3.390625 6.2622889,3.2206515 6.1588908,3.058623 6.0566406,2.90625 6.0110363,2.8382905 6.9082795,2.3382074 6.8144531,1.9511719 6.5143443,2.3080755 5.8300689,2.5845229 5.7851562,2.5253906 5.6311298,2.3225994 5.4738143,2.1376754 5.3125,1.9746094 5.2597264,1.9212628 5.8738971,1.0852672 5.7128906,0.87695312 5.6421291,1.1362409 5.047051,1.7273103 4.9921875,1.6835938 4.8130838,1.5408789 4.6257349,1.4259737 4.4335938,1.3417969 4.3772059,1.3170936 4.4221301,0.4730324 4.2402344,0.40820312 4.2852568,0.63655201 4.1264445,1.2334138 4.0566406,1.21875 4.0229647,1.2116777 3.9892171,1.2063384 3.9550781,1.2011719 3.7873502,1.1757866 3.6248552,1.180319 3.4628906,1.2109375 3.3999042,1.2228448 3.0761005,0.52062437 2.8046875,0.50585938 3.0344927,0.79597587 3.1694943,1.2931115 3.1171875,1.3144531 2.9216305,1.3942416 2.7262053,1.5089729 2.5292969,1.6484375 2.4867938,1.6785411 1.8573511,0.86561166 1.6113281,0.95507812 1.8948826,1.1898417 2.2377582,1.862416 2.1953125,1.8964844 2.0919666,1.9794337 2.0667667,2.0116024 1.9609375,2.1054688 1.9066696,2.1536022 1.8538888,2.2054886 1.8027344,2.2578125 1.778982,2.2821079 1.1079163,1.6394877 0.77929688,1.7617188 1.1349607,1.8926331 1.5179888,2.5294507 1.4960938,2.5546875 1.3276509,2.7488379 1.3485879,2.8144299 1.2167969,3.0390625 1.1930437,3.0795491 0.51013425,2.6620055 0.16015625,2.7675781 0.49543163,2.923636 1.0429037,3.3883861 1.0253906,3.421875 0.87494242,3.7095662 0.81855984,3.8466888 0.72265625,4.1308594 0.70447102,4.1847438 0.30839426,3.9879512 0.06054687,4.0488281 0.32756229,4.1506139 0.65948877,4.3004441 0.625,4.4492188 0.53502799,4.8373321 0.46315417,5.174354 0.45703125,5.4101562 1.31908,5.3695146 2.0488329,3.1496538 2.5234375,2.6328125 3.0449133,2.064929 3.4550674,1.9082659 3.8417969,1.9667969 4.2285265,2.0253278 4.687018,2.3500164 5.1777344,2.9960938 5.5287044,3.4581805 5.8891266,4.074587 6.2558594,4.8183594 6.0359868,5.0629298 5.9387246,5.1818417 5.7929688,5.4023438 5.7518533,5.464544 3.1326202,5.4264496 2.8828125,6.8203125 4.1782958,5.8533373 5.510278,6.025566 5.484375,6.0976562 5.4374536,6.2282424 5.4421422,6.3240946 5.4101562,6.453125 5.3758788,6.5913995 3.4689911,6.9404739 3.2871094,8.28125 3.8893574,7.5104068 5.3105469,7.093526 5.3105469,7.203125 c 0,0.8450253 0.2312157,5.071802 1.1210937,5.890625 l -0.039063,-0.01758 C 5.7888612,14.736852 5.2133026,14.963987 4.5898438,15.939453 5.7687753,15.577298 6.9205919,15.035686 7.3554688,14 c 0.1344248,0.04452 0.2804342,0.07031 0.501953,0.06934 0.2215189,-9.76e-4 0.3675283,-0.02677 0.5019532,-0.07129 0.4348769,1.035686 1.5847402,1.577299 2.763672,1.939453 -0.62346,-0.975466 -1.1990176,-1.202602 -1.8027345,-2.863281 l -0.037109,0.01758 c 0.8898789,-0.818824 1.1191409,-5.0456 1.1191409,-5.8906251 0,-0.1095989 1.423142,0.3072817 2.02539,1.078125 C 12.245853,6.9385212 10.338967,6.5894457 10.304688,6.4511719 10.272698,6.322141 10.277389,6.2243359 10.230469,6.09375 10.204566,6.0216591 11.534595,5.8513843 12.830078,6.8183594 12.58027,5.4244969 9.9610378,5.4625906 9.9199219,5.4003906 9.774166,5.1798885 9.678857,5.0609767 9.4589844,4.8164062 9.8257171,4.0726339 10.186139,3.4562274 10.537109,2.9941406 c 0.490717,-0.6460773 0.949208,-0.9707659 1.335938,-1.0292968 0.386729,-0.058531 0.794931,0.098132 1.316406,0.6660156 0.474605,0.5168413 1.204358,2.7347486 2.066406,2.7753906 -0.0061,-0.2358023 -0.078,-0.5708711 -0.167968,-0.9589844 C 15.053402,4.298491 15.387281,4.1486608 15.654297,4.046875 15.406449,3.9859985 15.008424,4.1827902 14.990234,4.1289062 14.89433,3.8447356 14.839901,3.70566 14.689453,3.4179688 14.67194,3.3844799 15.21746,2.9216828 15.552734,2.765625 15.202757,2.6600524 14.521797,3.0775963 14.498047,3.0371094 14.366256,2.8124768 14.387193,2.7468848 14.21875,2.5527344 14.196854,2.5274976 14.579883,1.89068 14.935547,1.7597656 14.606927,1.6375345 13.933906,2.2801544 13.910156,2.2558594 13.859002,2.2035355 13.806223,2.1516486 13.751953,2.1035156 13.646124,2.0096493 13.622877,1.9774802 13.519531,1.8945312 13.477085,1.8604629 13.818008,1.1878887 14.101562,0.953125 13.85554,0.86365859 13.226094,1.6765883 13.183594,1.6464844 12.986686,1.5070198 12.793213,1.3922889 12.597656,1.3125 c -0.05231,-0.021342 0.08074,-0.51847724 0.310547,-0.80859375 -0.271414,0.014765 -0.59326,0.71698515 -0.65625,0.70507815 -0.161965,-0.030618 -0.326413,-0.035151 -0.494141,-0.00977 -0.03414,0.00517 -0.06788,0.010508 -0.101562,0.017578 -0.0698,0.014664 -0.228614,-0.58219803 -0.183594,-0.8105469 z" />
</svg>
