<svg xmlns="http://www.w3.org/2000/svg" width="16" height="16" fill="currentColor" class="bi bi-pencil-square" viewBox="0 -0.25 6 16">
<path d="m 4.2072509,4.4110415 c 0.7184073,0.2086443 1.6420433,0.7227042 1.6529271,1.4966165 0.034671,2.4653494 -0.011471,6.098893 -0.0194,8.5738 0.00125,0.0163 0.00125,0.03276 0,0.04913 -0.050482,0.421481 -0.3362401,0.777579 -0.7367841,0.918146 -1.7446661,10e-4 -2.7502217,-0.0056 -4.4081115,-0.0089 v 0 c -0.4068727,-0.142123 -0.6946422,-0.50699 -0.7380435,-0.93578 -6.239e-4,-0.01006 -6.239e-4,-0.02017 0,-0.03023 v 0 C -0.0233648,11.908009 -0.0064638,8.3410609 -0.0624557,5.8349704 -0.0793808,5.0775807 0.8980273,4.6094421 1.5598661,4.4060038 v 0 c 0,-0.9818695 -0.010868,-4.3415884 -0.010868,-4.3415884 h 2.6414392 c 0,0 0.017247,3.0544489 0.016804,4.3466257 z"/>
</svg>
